<?xml version="1.0" encoding="utf-8"?>
<!-- Generator: Adobe Illustrator 24.1.2, SVG Export Plug-In . SVG Version: 6.00 Build 0)  -->
<svg version="1.1" id="Layer_1" xmlns="http://www.w3.org/2000/svg" xmlns:xlink="http://www.w3.org/1999/xlink" x="0px" y="0px"
	 viewBox="0 0 2000 1456.9" style="enable-background:new 0 0 2000 1456.9;" xml:space="preserve">
<style type="text/css">
	.st0{clip-path:url(#SVGID_2_);}
	.st1{fill:url(#SVGID_3_);}
	.st2{fill:url(#SVGID_4_);}
	.st3{fill:url(#SVGID_5_);}
	.st4{fill:url(#SVGID_6_);}
	.st5{fill:url(#SVGID_7_);}
	.st6{fill:url(#SVGID_8_);}
</style>
<g>
	<defs>
		<rect id="SVGID_1_" width="2000" height="1456.9"/>
	</defs>
	<clipPath id="SVGID_2_">
		<use xlink:href="#SVGID_1_"  style="overflow:visible;"/>
	</clipPath>
	<g class="st0">
		
			<linearGradient id="SVGID_3_" gradientUnits="userSpaceOnUse" x1="1065.9086" y1="1020.2233" x2="1065.9086" y2="127.6623" gradientTransform="matrix(0.9368 -0.3498 -0.2501 -0.6699 -228.0001 935.2641)">
			<stop  offset="0" style="stop-color:#12294B"/>
			<stop  offset="1" style="stop-color:#12294B;stop-opacity:0"/>
		</linearGradient>
		<path class="st1" d="M909.8,412.9L566.8,541L344.1-57l343-128.2L909.8,412.9z"/>
		
			<linearGradient id="SVGID_4_" gradientUnits="userSpaceOnUse" x1="775.2314" y1="2132.1604" x2="775.2314" y2="1239.6088" gradientTransform="matrix(0.9368 -0.3498 -0.5804 -1.5545 629.2206 3231.1184)">
			<stop  offset="0" style="stop-color:#12294B"/>
			<stop  offset="1" style="stop-color:#12294B;stop-opacity:0"/>
		</linearGradient>
		<path class="st2" d="M807.1,968.9l-343,128.2L-53.2-290.4l343-128.2L807.1,968.9z"/>
		
			<linearGradient id="SVGID_5_" gradientUnits="userSpaceOnUse" x1="1272.4031" y1="2279.4292" x2="1272.4031" y2="1386.7999" gradientTransform="matrix(0.9368 -0.3498 -0.6035 -1.6163 794.4775 3673.6248)">
			<stop  offset="0" style="stop-color:#12294B"/>
			<stop  offset="1" style="stop-color:#12294B;stop-opacity:0"/>
		</linearGradient>
		<path class="st3" d="M1320.7,922.9l-343,128.3L439.6-391.5l343-128.3L1320.7,922.9z"/>
		
			<linearGradient id="SVGID_6_" gradientUnits="userSpaceOnUse" x1="2325.8374" y1="2526.4358" x2="2325.8374" y2="1633.7211" gradientTransform="matrix(1.1043 -0.4123 -0.3498 -0.9368 -354.8108 3101.0552)">
			<stop  offset="0" style="stop-color:#12294B"/>
			<stop  offset="1" style="stop-color:#12294B;stop-opacity:0"/>
		</linearGradient>
		<path class="st4" d="M1844.1,536l-404.3,151.2L1128-149l404.3-151.2L1844.1,536z"/>
		
			<linearGradient id="SVGID_7_" gradientUnits="userSpaceOnUse" x1="282.1481" y1="1938.283" x2="282.1481" y2="1045.6017" gradientTransform="matrix(0.9368 -0.3498 -0.5055 -1.3539 508.2505 2907.136)">
			<stop  offset="0" style="stop-color:#12294B"/>
			<stop  offset="1" style="stop-color:#12294B;stop-opacity:0"/>
		</linearGradient>
		<path class="st5" d="M415.3,1328.6l-343,128.3L-378.5,248.4l343-128.3L415.3,1328.6z"/>
		
			<linearGradient id="SVGID_8_" gradientUnits="userSpaceOnUse" x1="540.6205" y1="2787.0037" x2="540.6205" y2="1894.374" gradientTransform="matrix(0.9368 -0.3499 -0.3499 -0.9368 466.2844 2794.7622)">
			<stop  offset="0" style="stop-color:#12294B"/>
			<stop  offset="1" style="stop-color:#12294B;stop-opacity:0"/>
		</linearGradient>
		<path class="st6" d="M481.2,766.9l-343,128.3L-173.6,58.8l343-128.2L481.2,766.9z"/>
	</g>
</g>
</svg>
